PathFileType	4	(X/Y/Z)	C:/Users/beibeiliu/ov580/test_trc/User2\sequence.4_training_dense_left.trc
DataRate	CameraRate	NumFrames	NumMarkers	Units	OrigDataRate	OrigDataStartFrame	OrigNumFrames
120	120	19	19	mm	120	54	80
Frame#	Time	ThumbCMC			ThumbMCP			ThumbIP			ThumbTip			IndexMCP			IndexPIP			IndexTip			MiddleMCP			MiddlePIP			MiddleTip			RingMCP			RingPIP			RingTip			PinkyMCP			PinkyPIP			PinkyTip			BackHand1			BackHand2			BackHand3	
		X0	Y0	Z0	X1	Y1	Z1	X2	Y2	Z2	X3	Y3	Z3	X4	Y4	Z4	X5	Y5	Z5	X6	Y6	Z6	X7	Y7	Z7	X8	Y8	Z8	X9	Y9	Z9	X10	Y10	Z10	X11	Y11	Z11	X12	Y12	Z12	X13	Y13	Z13	X14	Y14	Z14	X15	Y15	Z15	X16	Y16	Z16	X17	Y17	Z17	X18	Y18	Z18	
53	0.441667	-146.064	-18.6902	-2.07934	-115.946	-47.4977	-8.4746	-97.4939	-78.7425	-17.6207	-103.582	-104.142	-22.8986	-147.777	-45.7676	-80.4456	-132.866	-55.1217	-104.604	-121.056	-64.6741	-124.407	-148.352	-80.0088	-75.8995	-121.655	-103.771	-64.9329	-112.29	-99.7427	-27.1873	-156.242	-97.1796	-57.3777	-133.99	-112.749	-41.8488	-123.556	-98.5696	-11.9134	-169.546	-106.668	-37.0154	-140.799	-109.343	-18.0022	-140.095	-86.4783	3.85009	-205.134	-56.4079	-29.335	-216.444	-37.8095	-5.99428	-184.519	-19.8673	-29.8253	
54	0.45	-151.199	-7.95156	-5.74127	-119.911	-27.6715	-5.67798	-95.4478	-56.0364	-14.8662	-96.5826	-82.9205	-19.681	-147.356	-35.641	-80.4674	-129.898	-42.984	-105.84	-116.893	-50.8274	-122.827	-148.29	-71.507	-74.1209	-113.248	-86.972	-67.4202	-98.3272	-82.7818	-31.87	-150.572	-89.9118	-53.512	-121.408	-99.1597	-37.4031	-115.252	-80.2173	-10.4217	-156.12	-99.7532	-34.292	-129.558	-96.2775	-15.8427	-134.444	-71.4441	3.38849	-201.402	-56.0243	-30.2694	-217.415	-40.4749	-2.98774	-189.433	-16.0413	-27.3495	
55	0.458333	-161.117	1.30027	-4.20539	-122.565	-11.1156	-7.89393	-99.3009	-35.3389	-15.3753	-90.3847	-63.2767	-22.7756	-150.921	-25.4003	-78.5184	-131.51	-29.8205	-102.046	-115.587	-35.5402	-122.796	-144.409	-57.3736	-74.6537	-107.132	-68.5786	-71.4471	-90.6717	-67.8535	-38.4941	-144.201	-74.7766	-54.8922	-110.907	-80.2851	-37.548	-109.336	-61.8722	-10.3619	-148.543	-90.6339	-33.2038	-121.01	-81.6949	-18.5295	-129.865	-56.6173	6.56587	-197.375	-51.4621	-28.7388	-216.28	-38.9841	-5.80713	-198.873	-12.8007	-26.0052	
56	0.466667	-168.516	13.4216	-5.92196	-129.395	10.2056	-7.96086	-98.7132	-8.19123	-16.6174	-89.4596	-35.5079	-21.7768	-151.041	-9.62077	-80.1395	-132.145	-9.06908	-100.309	-115.493	-11.0433	-119.546	-137.284	-42.8718	-74.0552	-100.216	-47.9344	-66.3265	-83.7589	-42.2707	-31.9433	-136.751	-60.4168	-53.6224	-104.334	-58.8936	-36.5995	-107.413	-37.7727	-8.49232	-141.986	-73.9176	-33.4257	-113.555	-63.8053	-18.6178	-124.123	-40.9514	6.25813	-192.874	-52.1814	-31.9686	-218.48	-41.6031	-4.61669	-198.695	-9.05208	-28.4548	
57	0.475	-179.612	21.0873	-3.03274	-141.896	26.2278	-6.72915	-107.717	10.5292	-16.0505	-96.6918	-12.6524	-19.4848	-149.759	1.60265	-80.2585	-131.862	1.52079	-99.6772	-113.729	3.75132	-119.705	-132.18	-29.736	-70.4899	-98.1241	-27.9352	-63.8887	-80.7701	-16.6478	-26.1461	-125.008	-44.8925	-52.6997	-98.5676	-36.6075	-36.4611	-104.526	-20.5121	-8.02127	-131.652	-61.2027	-31.064	-106.087	-44.8983	-11.6242	-119.72	-25.0217	9.10661	-187.681	-46.5181	-28.2585	-213.995	-37.465	-7.80288	-203.18	-8.0488	-27.5087	
58	0.483333	-187.083	28.1185	-5.52288	-150.249	35.2902	-10.4166	-116.608	29.1831	-18.5405	-100.224	2.53548	-23.6177	-155.213	3.44893	-78.6834	-137.224	5.26272	-99.0961	-117.972	6.02588	-123.723	-132.509	-21.5625	-67.3316	-94.1291	-11.3419	-58.1438	-81.0969	2.74186	-25.4304	-125.139	-36.7056	-50.8162	-97.4847	-23.4512	-34.0966	-105.626	-6.33424	-7.58245	-125.438	-51.7014	-30.0041	-104.222	-30.9748	-14.6621	-122.697	-12.3845	8.377	-183.478	-41.104	-30.91	-210.694	-41	-4.91486	-203.797	-10.1178	-29.2645	
59	0.491667	-194.232	26.1648	-10.1753	-158.327	36.2538	-19.312	-124.8	31.7537	-29.8901	-108.662	5.85653	-32.327	-163.149	-2.34539	-87.6916	-148.043	-1.13653	-110.244	-134.006	-6.96198	-127.566	-134.415	-23.5538	-72.8437	-102.555	-10.2637	-68.1669	-87.2952	4.99539	-34.8904	-124.989	-35.5784	-55.1807	-102.131	-16.7107	-40.8231	-113.181	-0.0886257	-9.99017	-128.463	-49.494	-32.6548	-106.182	-24.4167	-17.2266	-124.855	-10.2624	-0.688604	-186.397	-49.1033	-26.4211	-210.34	-47.0998	-4.64758	-209.257	-12.106	-31.6815	
60	0.5	-201.372	20.1944	-19.0311	-168.053	29.808	-33.0447	-132.247	25.8434	-50.9121	-119.337	1.752	-50.8883	-181.313	-17.007	-89.446	-169.75	-22.8203	-115.451	-156.792	-31.7865	-142.177	-149.064	-29.7317	-84.0107	-115.554	-19.3178	-81.7847	-97.005	6.98704	-54.3508	-136.006	-43.2349	-65.3185	-110.28	-24.8118	-54.2017	-119.48	-3.14329	-29.4538	-135.048	-52.6277	-43.6654	-112.325	-30.0433	-32.4682	-127.714	-11.1191	-11.526	-190.888	-52.842	-33.954	-214.662	-49.2343	-4.01735	-213.898	-23.6345	-31.8878	
61	0.508333	-205.902	16.8905	-26.94	-174.458	27.8489	-44.9201	-143.453	23.5103	-63.8753	-125.792	-4.36087	-69.1796	-195.14	-27.4797	-94.7922	-188.014	-35.4201	-122.446	-182.42	-42.2863	-148.432	-160.316	-36.8973	-93.2847	-125.657	-24.2559	-94.0393	-107.494	0.324581	-71.4836	-147.166	-51.336	-73.6948	-121.474	-29.7466	-70.788	-126.79	-8.84849	-40.8155	-139.968	-59.833	-54.0651	-120.321	-32.5064	-47.2152	-137.268	-15.3328	-27.3987	-196.522	-58.295	-37.1709	-215.395	-52.462	-7.98757	-225.399	-23.8728	-35.4046	
62	0.516667	-211.302	13.4016	-30.2158	-181.365	21.9294	-55.7417	-155.316	17.5588	-74.2401	-138.937	-10.485	-81.0874	-210.21	-33.232	-102.246	-207.35	-40.6089	-125.796	-202.475	-53.8965	-152.746	-176.403	-43.0806	-99.9135	-141.345	-27.6619	-108.83	-118.426	-7.55846	-87.883	-158.373	-55.179	-84.9386	-134.593	-35.0081	-86.5377	-136.364	-11.5559	-55.3916	-151.742	-63.624	-64.203	-129.174	-37.6573	-61.3944	-143.039	-17.7119	-37.4195	-207.835	-59.7172	-36.6369	-219.75	-52.6233	-8.58856	-229.511	-28.3778	-36.0423	
63	0.525	-213.605	10.1766	-31.684	-187.726	20.039	-58.6357	-163.499	12.5906	-82.5039	-148.9	-14.2469	-89.2801	-225.105	-33.9643	-101.466	-225.462	-43.2913	-129.093	-225.912	-53.4355	-154.635	-190.761	-48.2133	-105.333	-160.853	-35.8504	-118.92	-134.806	-10.8552	-103.116	-176.107	-59.1357	-90.5771	-148.33	-39.4174	-96.6201	-143.382	-18.1198	-68.8487	-167.148	-67.3697	-71.8864	-139.566	-45.1018	-74.3678	-151.061	-22.194	-51.5316	-214.145	-60.3671	-38.7403	-221.828	-58.9232	-4.61507	-236.356	-29.9888	-36.1841	
64	0.533333	-210.065	8.54729	-30.2585	-183.348	19.7841	-55.6832	-161.614	9.34668	-89.0789	-152.65	-16.9233	-95.133	-237.819	-26.7371	-100.501	-242.959	-31.8355	-128.29	-246.187	-35.9707	-151.131	-210.674	-43.9613	-108.465	-176.121	-37.3999	-125.393	-146.647	-19.0627	-108.593	-189.74	-60.952	-97.8522	-162.059	-45.7174	-104.932	-151.71	-23.2273	-76.9727	-181.248	-68.2231	-79.9038	-152.512	-50.4802	-85.0933	-150.541	-32.2932	-58.2862	-222.284	-60.1359	-39.0443	-224.937	-54.9362	-5.89623	-236.98	-23.9072	-31.2995	
65	0.541667	-199.495	10.504	-26.4071	-173.843	13.7548	-57.7417	-155.233	5.82053	-82.6049	-150.427	-17.4959	-102.071	-239.55	-8.54631	-92.0129	-246.829	-11.5415	-123.222	-254.454	-13.791	-150.411	-220.74	-33.3025	-107.914	-187.196	-35.6739	-126.035	-156.277	-27.7417	-107.213	-202.323	-50.9944	-100.76	-171.145	-44.9451	-107.283	-154.215	-32.3286	-79.3198	-192.717	-66.6866	-86.1207	-161.679	-58.1918	-89.2367	-156.959	-36.3826	-64.3866	-228.346	-52.5968	-37.0966	-230.788	-53.2922	-7.53404	-236.023	-18.3197	-25.9502	
66	0.55	-184.233	10.3014	-20.9568	-159.209	10.9085	-50.2598	-146.505	-0.826747	-82.7046	-144.736	-19.5575	-105.636	-229.674	10.0577	-85.8141	-237.364	13.8855	-115.134	-243.798	16.6512	-143.221	-219.775	-20.6517	-105.077	-191.188	-23.3515	-124.927	-156.548	-28.3611	-98.937	-207.854	-43.4817	-100.098	-176.864	-47.3473	-109.045	-156.7	-38.5928	-82.5066	-205.333	-63.5493	-84.1681	-172.508	-58.6303	-92.6765	-157.762	-50.2096	-64.9054	-232.465	-41.1982	-35.4114	-230.492	-44.6357	-5.89654	-228.495	-7.1731	-20.3162	
67	0.558333	-169.052	6.51797	-14.7356	-145.827	1.65794	-44.0698	-135.83	-7.08544	-79.9896	-144.387	-25.9314	-101.864	-213.369	21.0754	-80.3134	-216.379	31.4437	-106.81	-221.153	39.2519	-133.3	-211.437	-7.46556	-97.8996	-182.957	-19.6923	-118.788	-156.07	-34.9467	-95.168	-209.652	-31.6239	-96.9765	-178.815	-42.0768	-106.646	-159.347	-43.6129	-78.2452	-209.215	-54.0127	-87.381	-176.622	-59.305	-92.7007	-163.075	-53.6286	-62.7844	-231.591	-30.0049	-32.6665	-227.777	-34.5247	-3.48244	-215.404	0.285064	-15.1088	
68	0.566667	-155.554	-3.19904	-8.8322	-134.025	-9.01102	-40.4615	-130.269	-17.0415	-72.9888	-139.346	-29.8979	-100.594	-193.643	30.9916	-76.1455	-195.41	42.8035	-103.996	-197.966	48.2529	-127.889	-201.576	3.26426	-93.5689	-179.505	-15.1939	-114.995	-154.859	-37.4528	-93.0851	-206.73	-18.7722	-92.1842	-181.951	-37.0044	-106.27	-164.359	-50.9608	-79.9477	-214.6	-44.0162	-85.1639	-182.809	-54.6674	-94.0826	-166.89	-56.8984	-66.8934	-225.136	-18.3721	-32.1355	-226.834	-27.9687	0.964839	-202.444	2.31093	-11.306	
69	0.575	-150.688	-16.4052	-7.00708	-131.495	-22.4911	-41.6691	-126.956	-28.6981	-75.9314	-138.957	-38.1986	-100.697	-174.275	32.3317	-71.8506	-174.85	42.3622	-100.347	-175.526	49.6337	-124.766	-191.066	5.67583	-93.1314	-175.182	-16.0197	-113.748	-156.378	-45.4946	-89.8998	-204.319	-16.1292	-91.5918	-185.663	-36.3558	-107.156	-167.327	-52.6839	-79.6126	-215.35	-34.5123	-84.7413	-188.344	-51.7662	-95.5865	-173.584	-64.8107	-72.0964	-220.996	-13.7043	-25.7078	-221.426	-25.4309	6.45239	-191.316	1.3736	-7.03994	
70	0.583333	-142.8	-25.9324	-7.19327	-131.139	-35.6479	-39.5698	-126.138	-41.9056	-76.2481	-140.191	-46.9079	-101.453	-162.579	24.9648	-71.3844	-159.023	34.4054	-94.4078	-160.95	41.7824	-127.066	-180.581	4.33315	-88.6891	-170.822	-19.9706	-113.669	-155.278	-50.7236	-94.1992	-200.551	-15.1737	-90.1996	-180.683	-39.5132	-106.008	-169.816	-61.0217	-77.4908	-213.624	-31.9018	-84.3782	-195.155	-54.1973	-98.7572	-176.665	-69.1389	-72.2078	-215.261	-12.851	-27.5646	-211.869	-22.3675	6.68677	-182.239	-2.93658	-5.81555	
71	0.591667	-140.217	-33.1958	-9.5143	-124.493	-46.2252	-36.9558	-125.385	-51.369	-73.4384	-134.255	-57.246	-101.093	-159.625	12.555	-74.2928	-152.98	22.9643	-101.083	-151.354	29.007	-129.779	-177.737	-0.235958	-88.4504	-166.182	-22.5096	-116.132	-155.668	-60.4199	-100.602	-194.53	-17.3464	-91.4742	-184.709	-37.185	-110.311	-171.204	-68.0068	-86.6415	-213.272	-33.0473	-77.3181	-194.789	-52.4835	-100.5	-177.894	-75.941	-81.9476	-209.405	-16.3865	-28.7517	-210.509	-23.8022	5.2727	-173.915	-6.68474	-7.73049	
